  <svg
    className="anticon"
    width="1.25em"
    height="1.25em"
    viewBox="0 0 1024 1024"
  >
    <path
      d="M720.713143 955.355429c29.988571 0 47.140571-21.430857 47.140571-54.436572v-111.414857h20.150857c127.707429 0 196.278857-70.290286 196.278858-196.297143V264.923429c0-125.988571-68.571429-196.278857-196.278858-196.278858H235.995429c-127.268571 0-196.278857 70.710857-196.278858 196.278858v328.283428c0 125.586286 68.992 196.297143 196.278858 196.297143h275.145142l148.297143 131.565714c25.709714 23.149714 40.283429 34.285714 61.275429 34.285715z m-17.554286-78.427429l-136.722286-136.283429c-16.292571-16.713143-28.708571-20.150857-52.717714-20.150857H236.434286c-86.582857 0-127.725714-44.141714-127.725715-127.707428v-327.862857c0-83.565714 41.142857-127.268571 127.725715-127.268572h551.570285c87.003429 0 127.268571 43.702857 127.268572 127.268572v327.862857c0 83.565714-40.265143 127.707429-127.268572 127.707428h-52.297142c-23.570286 0-32.548571 8.996571-32.548572 32.146286z"
      p-id="10162"
    ></path>
  </svg>