  <svg className="anticon" width="1em" height="1em" viewBox="0 0 1024 1024">
    <path
      d="M1006.87952 873.984c-0.224-2.432-0.544-4.768-0.544-7.008 0-94.784-131.52-204.8-325.312-246.72A271.36 271.36 0 0 0 751.77552 443.264V256.512C751.77552 110.272 648.83152 0 511.77552 0S271.77552 110.272 271.77552 256.512v186.752a259.936 259.936 0 0 0 62.432 184.192C168.73552 670.176 19.23152 763.488 19.23152 868.064c0 2.208-2.176 4.576-2.432 6.944a66.144 66.144 0 0 0 35.776 74.144C142.71952 996.032 313.95152 1024 511.35952 1024s368.896-27.968 459.104-74.848a67.904 67.904 0 0 0 36.416-75.168zM335.77552 443.264V256.512c0-109.28 75.424-191.68 176-191.68S687.77552 147.2 687.77552 256.512v186.752c0 109.28-75.488 191.68-176 191.68s-176-82.4-176-191.68z m605.12 448.224c-80.32 41.6-245.088 67.648-429.984 67.648s-349.632-25.92-429.952-67.616c-1.472-0.8-2.432-1.44-2.848-1.568 0-2.048 0.32-5.696 0.608-8.288 0.48-4.64 0.864-9.216 0.864-13.6 0-57.6 128-159.264 316.096-190.88a239.264 239.264 0 0 0 209.792-3.36c199.328 27.104 336.768 133.792 336.768 193.12 0 4.288 0.384 8.832 0.864 13.536a57.024 57.024 0 0 0 1.184 8.736 13.44 13.44 0 0 1-3.424 2.272z"
      p-id="13682"
    ></path>
  </svg>