<?xml version="1.0" encoding="UTF-8" standalone="no"?>
<svg
   xmlns:dc="http://purl.org/dc/elements/1.1/"
   xmlns:cc="http://creativecommons.org/ns#"
   xmlns:rdf="http://www.w3.org/1999/02/22-rdf-syntax-ns#"
   xmlns:svg="http://www.w3.org/2000/svg"
   xmlns="http://www.w3.org/2000/svg"
   xmlns:sodipodi="http://sodipodi.sourceforge.net/DTD/sodipodi-0.dtd"
   xmlns:inkscape="http://www.inkscape.org/namespaces/inkscape"
   width="24"
   height="24"
   viewBox="0 0 24 24"
   id="svg2"
   version="1.1"
   inkscape:version="0.91 r13725"
   sodipodi:docname="directions_walk_white.svg">
  <metadata
     id="metadata12">
    <rdf:RDF>
      <cc:Work
         rdf:about="">
        <dc:format>image/svg+xml</dc:format>
        <dc:type
           rdf:resource="http://purl.org/dc/dcmitype/StillImage" />
      </cc:Work>
    </rdf:RDF>
  </metadata>
  <defs
     id="defs10" />
  <sodipodi:namedview
     pagecolor="#ffffff"
     bordercolor="#666666"
     borderopacity="1"
     objecttolerance="10"
     gridtolerance="10"
     guidetolerance="10"
     inkscape:pageopacity="0"
     inkscape:pageshadow="2"
     inkscape:window-width="702"
     inkscape:window-height="480"
     id="namedview8"
     showgrid="false"
     inkscape:zoom="9.8333333"
     inkscape:cx="12"
     inkscape:cy="12"
     inkscape:window-x="0"
     inkscape:window-y="0"
     inkscape:window-maximized="0"
     inkscape:current-layer="svg2" />
  <path
     fill="none"
     d="M0 0h24v24H0z"
     id="path4" />
  <path
     d="m 15.38648,6.2662594 c 0.975128,0 1.77296,-0.7978321 1.77296,-1.7729602 0,-0.9751281 -0.797832,-1.7729602 -1.77296,-1.7729602 -0.975128,0 -1.77296,0.7978321 -1.77296,1.7729602 0,0.9751281 0.797832,1.7729602 1.77296,1.7729602 z m -3.279976,3.0140323 -2.4821445,12.4993693 1.8616085,0 1.595664,-7.091841 1.861608,1.77296 0,5.318881 1.77296,0 0,-6.648601 -1.861608,-1.77296 0.531888,-2.65944 c 1.152424,1.32972 2.925384,2.2162 4.875641,2.2162 l 0,-1.77296 c -1.684313,0 -3.102681,-0.88648 -3.811865,-2.1275523 L 15.563776,7.5959795 C 15.209184,7.0640914 14.677296,6.7094994 14.05676,6.7094994 c -0.265944,0 -0.44324,0.088648 -0.709184,0.088648 l -4.6096966,1.9502562 0,4.1664564 1.7729606,0 0,-3.0140323 1.595664,-0.620536"
     id="path6"
     style="fill:#ffffff"
     inkscape:connector-curvature="0" />
</svg>
